<?xml version="1.0" encoding="utf-8"?>
<!-- Generator: Adobe Illustrator 26.2.1, SVG Export Plug-In . SVG Version: 6.00 Build 0)  -->
<svg version="1.1" id="레이어_1" xmlns="http://www.w3.org/2000/svg" xmlns:xlink="http://www.w3.org/1999/xlink" x="0px"
	 y="0px" viewBox="0 0 226 40" style="enable-background:new 0 0 226 40;" xml:space="preserve">
<style type="text/css">
	.st0{fill:#FFFFFF;}
</style>
<g>
	<path class="st0" d="M221.7,5.8c0-1.1,0.8-2,2-2l0,0c1.1,0,2,1,2,2.1s-1,2-2.1,2S221.7,6.9,221.7,5.8z M223.8,7.4
		c1,0,1.7-0.7,1.8-1.7c0-1-0.7-1.7-1.7-1.8s-1.7,0.7-1.8,1.7l0,0C222.1,6.6,222.7,7.4,223.8,7.4C223.6,7.4,223.6,7.4,223.8,7.4z
		 M223.4,6.9H223V4.5h0.8c0.6,0,0.8,0.1,0.8,0.7c0,0.6-0.3,0.6-0.6,0.6l0.7,1h-0.4l-0.6-1h-0.4v1.1C223.3,6.9,223.4,6.9,223.4,6.9z
		 M223.8,5.6c0.3,0,0.6,0,0.6-0.4s-0.3-0.3-0.6-0.3h-0.6v0.7H223.8L223.8,5.6z M156.4,5.2c0-1.1,0.8-2,2-2l0,0c1.1,0,2,0.8,2,2
		c0,1.1-0.8,2-2,2C157.4,7.3,156.6,6.5,156.4,5.2C156.4,5.3,156.4,5.2,156.4,5.2L156.4,5.2z M158.6,6.9c1,0,1.7-0.7,1.7-1.7
		s-0.7-1.7-1.7-1.7s-1.7,0.7-1.7,1.7S157.6,6.9,158.6,6.9z M158.1,6.5h-0.3V4.1h0.8c0.6,0,0.8,0.1,0.8,0.7c0,0.3-0.3,0.6-0.6,0.6
		l0,0l0.7,1h-0.2l-0.6-1h-0.6L158.1,6.5L158.1,6.5z M158.6,5c0.3,0,0.6,0,0.6-0.4s-0.3-0.3-0.6-0.3h-0.4V5H158.6L158.6,5z M23.9,1.8
		c0.8,3.1,1.5,6.2,2.1,9.4c0.1,0.6-0.1,1.1-0.6,1.5c-0.3,0.3-0.7,0.6-1.1,0.6c-0.7,0-1.3-0.3-1.7-0.7c-1.4-2-1.8-4.4-3.4-6.2
		c-0.4-0.4-1-0.6-1.5-0.3l-0.4,0.4l0.3,29c0.1,1,1,1.7,1.8,1.8c0.7-0.3,1.3-0.8,1.4-1.7l0.1-1.7l-0.3-14.1c-0.3-1-1.7-1-1.8-2.1
		c0.1-0.6,0.8-1,1.3-1.1c1.8-0.8,3.8-1.4,5.6-2.3c0.6,0,1.3-0.1,1.7,0.1l0.3,0.4l0.1,20.3c0.1,0.7,0.4,1.7,1.3,1.8
		c0.4,0.3,0.3,0.8,0.1,1.1c-0.4,0.6-1.3,0.7-1.8,0.7h-6.8c-0.6,0-1-0.3-1.4-0.7c-1.4,1.1-3.9,0.7-5.6,0.8c-2-0.1-4.5,0.6-6.2-0.6
		c-0.3-0.1-0.1-0.7-0.1-1c0.3-0.7,1.3-0.4,1.5-1.3l0.3-1L9,12.8L8.9,5.9c-0.3-0.3-0.6-0.6-1-0.4C7.2,5.6,6.6,6.3,6.4,6.9
		C5.6,8.4,5,10.1,4.1,11.8c-0.3,0.6-0.7,1-1.3,1.1c-0.7,0.1-1.5,0-2.1-0.6c-1-1.1-0.1-2.7,0-3.8l1.5-7c0.1-0.3,0.4-0.8,0.8-1
		c1.3-0.4,1.5,1.3,2.7,1l15.1-0.1c1-0.1,1.4-1.4,2.5-0.8L23.9,1.8z M116.4,2.2l0.3,0.4l0.1,4.8l0.1,27.9c0.1,0.8,0.4,1.5,1.3,2
		c0.3,0.3,0.3,0.8,0.1,1.1c-0.3,1-1.4,1-2.3,1h-6.3c-0.6,0-1.1-0.3-1.4-0.8c-0.1-0.4-0.3-0.8,0-1.3c0.6-0.4,1.4-0.8,1.4-1.7v-13
		c-0.1-1,0-2.5-0.1-3.7c-0.6,1.1,0.1,2.8-1.3,3.5c-0.6,0.1-1.1,0-1.5-0.3c-0.6-0.6-0.8-1.3-1-2.1c-0.4-0.3-0.8-0.1-1.3,0.1
		c-4.9,3.5-2.8,10.3-3.2,15.6c-0.1,1,1.4,0.7,1.4,1.7c0,0.4-0.1,0.8-0.4,1.1c-0.4,0.4-1.3,0.4-1.8,0.6l-7-0.1
		c-0.4-0.1-0.8-0.4-1-0.8c-0.1-0.3-0.1-0.7,0.1-1c0.4-0.4,1.1-0.3,1.4-1v-1.5l0.1-14.8c-0.1-1.3-2-1.1-1.8-2.5l0.8-0.8
		c2-0.8,4.1-1.5,6.1-2.4c0.7-0.1,1.5-0.1,2,0.6c0.1,1-0.1,2.4,0.1,3.5c0.1,0.1,0.3,0.1,0.3,0c1.3-1.8,2.8-4.1,5.4-3.9
		c1,0.1,2,0.1,2.5,1l0.1-0.3l-0.1-5.5h-0.1c0-0.6,0-1.1-0.1-1.8c0.1-1.3-1.8-1.3-1.3-2.5c1.8-2.1,4.6-1.8,6.8-3.4
		C115.4,1.8,116,1.9,116.4,2.2L116.4,2.2z M204.9,5.9l1-0.1c0,0-1.7-3.7-2.3-5.5c0.6,0,1.1,0,1.7,0.1c0.8,1.4,2.3,4.1,2.3,4.1
		s2.5-1.4,3.8-2.1c0.4,0.1,0.7,0.3,1,0.6l-3.8,3.4l1.1,3.2c0,0,2.7-3.8,4.1-5.8c0.4,0.1,0.8,0.4,1.1,0.8c-0.6,1-1.4,2-1.8,3
		c1.7,0.1,3.4,0.1,4.9,0.1c0.4,0.4,0.8,1,1.1,1.7L215,9.7l-2,3.4l2.7-0.6c0,0,2.1-0.8,4.2-1.7c0.4,0.6,0.7,1.1,0.7,1.7l-4.5,1.8
		l-3.9,0.8c-0.6,0.7-1,1.3-1.4,2.1c3.5-0.6,7-1.8,10.6-2.5c1.5,5.4,0.7,11.1-2.3,15.9c-9.6,2.4-19.9-0.6-29.9,0.7l-3,0.3
		c-2.1-2.5-3.1-5.5-3.7-8.7c-0.6-3.5-0.1-7,1.1-10.3c0.3,0,4.6-0.4,4.6-0.4L185.5,9c0.1-0.6,0.6-1,1-1.4c1.4,1.4,4.1,4.5,4.1,4.5
		l1.5-0.1l-4.6-5.4c0.6-0.7,1.1-1.4,2-2l3.9,0.7c0,0,0-2.1,0-3.2c0.8-0.4,1.7-0.8,2.5-1c0.8,1.4,1.4,3,2.3,4.2
		c1-1.7,1.8-3.4,2.8-5.2c0.1-0.1,0.3-0.1,0.4,0L204.9,5.9z M201.9,3.9l-2.1,3.9l1.3,4.1l1.8-1.3l0.6-3.4
		C202.9,6.2,202.5,5,201.9,3.9z M195.9,4.2v2l1,0.1C196.6,5.6,196.3,4.9,195.9,4.2z M190.8,6.6L190.8,6.6c1,1.1,3.1,3.5,3.1,3.5V7.6
		L190.8,6.6z M206.6,7.4l-1,0.6l0.1,0.7l0.8-0.7L206.6,7.4z M196,8.3l0.1,3.7l1.4-3.2L196,8.3z M212.9,9.8l-1.3,0.1l-2.1,3.2h1.4
		L212.9,9.8z M204.9,12.2L205,16l2.8-3.7c0.1-0.3,0.3-0.4,0.3-0.7l-0.6-1.7L204.9,12.2z M198.7,11.8l-0.8,1.8l1.7,2
		C199.4,14.2,199.1,12.9,198.7,11.8L198.7,11.8z M202.8,13.4l-1.1,0.6l0.1,1.5l0.8,0.3L202.8,13.4z M191.5,13.6L190,16l3.1,1.1
		l2.5-2.3l-1-1L191.5,13.6z M185.2,14.1l2.7,1.3l0.8-1.4L185.2,14.1z M208.1,15.8l-1.4,2.4l1.7-0.1l1.4-2.4L208.1,15.8z M197.3,16.3
		l-4.9,3.9l-2.4,0.1c0.4-0.6,0.8-1.1,1.3-1.7c-0.8-0.4-1.7-0.7-2.7-1l-1.7,2.3c-0.6,0.1-1.1,0-1.5,0.1c-0.1,2,0.3,3.7,0.6,5.5
		c0.1,0.4,0.3,1.3,1,1.1c4.8,0,9.3,0.7,14.1,1.3v-7.3c-0.3-0.6-0.7-1.3-1.1-1.8l-2.3,1.3h-4.1c0-0.1,3.4-2,4.8-3
		C198,17,197.9,16.5,197.3,16.3L197.3,16.3z M185.6,16.3c-0.3,0.6-0.3,1.5-0.1,2.3c0.4-0.6,1.3-1.8,1.3-1.8L185.6,16.3z M220,17.3
		l-1.7,0.6c0.4,1,1.5,2.7,1.5,2.7l-2.1,0.1l-1.8-2.3l-3,0.7l0.8,1.5l-1.5,0.1l-1.1-1.5c0,0-4.2,1.3-6.3,1.8l-0.1,0.1
		c0,2.4,0.1,4.6,0.4,6.9l0.1,0.6c3.9,0.7,7.9,1,12.1,1.1l0.4-0.1c1.1-1.7,1.8-3.4,2.4-5.4C220.7,22.2,220.8,19.3,220,17.3L220,17.3z
		"/>
	<path class="st0" d="M67,2.1l0.1,0.6l0.2,12.5c0.6,1,1-0.6,1.7-0.6c1.8-0.6,3.9,0.1,5.2,1.5c2.5,2.7,3,6.2,3.5,9.6l0.1-0.1
		c0.4-4.1,1.3-8.3,4.9-10.4c2-1.1,4.8-1,6.6,0c2.3,2,4.1,4.5,3.9,7.6c0,0.8,0,1.5-0.3,2.4c-2.7,1.3-5.6,2.3-8.3,3.4
		c-0.6,0.6-0.1,1.3,0,1.8c0.4,1.1,1,2.7,2.5,3c0.8,0.3,2,0.7,2.7,0.1c0.8-0.7,0.1-3.1,2.1-2.5c0.7,0.1,1.4,0.6,1.8,1.3
		c0.6,2.3-0.6,4.2-1.5,5.8c-2,1.7-4.6,2-7,1.7c-4.8-1-6.5-6.1-7.2-10.3c-0.4,3.8-0.6,8.6-4.9,10.1c-2.5,0.7-5.5,0.1-7.3-1.7
		c-0.1-0.3-0.3-0.8-0.7-1c-1,0-1,1.3-1.7,1.8c-0.7,0.4-1.4,1.1-2.3,0.8c-0.3-0.1-0.6-0.4-0.7-0.8c-1,1-2.3,0.7-3.5,0.7L52,39.3
		c-0.6,0-1.1-0.4-1.3-1c-0.1-0.6,0.6-0.8,1-1c0.6-0.7,0.7-1.7,0.6-2.5c-0.1-4.2-0.6-8.5-1.3-12.7c-0.3-0.8-0.6-1.8-1.3-2.4
		c-0.6-0.1-1,0.1-1.3,0.6L48,21v15.1c0.1,0.7,0.6,1.5,1.3,1.8c0.1,0.3,0.3,0.6,0.1,1c-1,1.4-2.8,0.7-4.1,0.8
		c-1.5-0.1-4.1,0.6-5.2-0.8c-0.1-0.4,0-0.8,0.4-1c0.8-0.1,1-1.1,1.3-1.7L41.4,20c-0.3-0.6-0.8-0.8-1.4-1c-0.7,0-1.3,0.6-1.5,1.1
		c-0.7,1.3-0.3,2.8-0.4,4.2l0.1,11.3c0,1,1,1.3,1.4,1.8c0.1,0.6-0.1,1.1-0.7,1.4c-2.7,0.6-5.1,0.1-7.7,0.1c-0.6-0.1-1.4-0.1-1.7-0.8
		c-0.1-0.3-0.1-0.7,0.1-1c0.6-0.3,1.1-0.8,1.3-1.4l0.1-0.8l-0.1-15.1c-0.1-1.3-2-1-1.7-2.4c0.8-1,2.3-1.3,3.5-1.8
		c1.1-0.4,2.1-0.8,3.2-1.4c0.8,0,1.8-0.1,2.1,0.6c0,0.6-0.1,1.4,0.4,1.7c1-0.1,1-1.1,1.8-1.7c1.4-1.3,3.9-1,5.5-0.1
		c0.8,0.4,1,1.3,1.7,1.8c1,0,1.1-1.3,2-1.8c1.4-1,3.8-0.6,5.1,0.1c2.5,2,2.5,5.2,3.2,8c0.7,3.8,1,7.7,1,11.7
		c0.1,0.8,0.1,2.1,1.1,2.3l0.1,0.1l0.1-0.3L59.7,7.7c0-1.1-0.7-2-1.4-2.7c-0.1-0.3,0-0.7,0.1-1c1.5-1.5,3.8-1.7,5.6-2.7
		C65,1.4,66.4,1.2,67,2.1L67,2.1z M83.2,18.7c-0.6,2.3-0.3,4.4,0.1,6.6c0.1,0.3,0.3,0.8,0.7,0.8c0.8-0.6,2-0.7,2.7-1.5
		c1.4-2.3-0.3-4.8-1.4-6.8C84.4,17.2,83.5,17.9,83.2,18.7z M69.5,17.9c-0.4,0.1-0.8,0.6-1,1c-1.5,3.2-1.7,6.8-1.3,10.4
		c0.3,1.5,0.4,3.2,1.7,4.4c0.3,0.1,0.8-0.1,1.1-0.3c2.7-4.1,1.8-10.3,0.4-14.8C70.2,18.4,70.1,17.9,69.5,17.9L69.5,17.9z M173.1,2.2
		l0.1,1.4l0.3,30.3c0,0.4,0.3,0.7,0.6,0.8c0.3,0.1,0.8,0.1,1,0.6c0.1,0.6,0,1-0.3,1.4c-1.8,1-3.7,1.5-5.5,2.3
		c-0.8,0.1-1.8,0.8-2.7,0.1c-0.6-0.4,0.3-1.1-0.4-1.4c-0.8,0.6-1.4,1.4-2.3,1.7c-2,0.4-4.1-0.4-5.5-1.8c-3.2-3.7-3-9.4-2.3-14.2
		c0.3-3.2,1.7-6.2,3.8-8.6c1.1-1,2.5-1.4,3.9-1c0.7,0.1,1.3,0.7,1.8,1.1c0.1,0,0.3-0.1,0.3-0.3v-7c-0.1-1.4-3.1-1.7-1.7-3.4
		c0.6-0.3,1.4-0.1,2.1-0.4c1.8-1,3.9-1.7,5.8-2.7C172.6,1.5,173.1,1.8,173.1,2.2L173.1,2.2z M163.8,18c-0.6,0.1-0.7,0.8-1,1.3
		c-0.8,3-1.4,6.2-1,9.4c0.4,1.8,0.6,3.8,2.1,5.2c0.4,0.3,0.8,0.1,1.1-0.1c2-3.7,1.7-8.3,0.7-12.4C165.3,20,165.2,18.4,163.8,18
		L163.8,18z"/>
	<path class="st0" d="M156.2,36.7c-0.5-0.6-0.6-1.1-0.6-1.7c-0.3-4.6-0.9-9.3-1.7-13.9c-0.2-1.4-0.8-2.6-1.5-3.9
		c-0.9-1.4-2.2-2.4-3.8-3.1c-1-0.3-2.2,0-3,0.8c-0.4,0.5-0.4,1.2-1,1.3c-0.5-0.4-0.3-1.1-0.6-1.5c-0.5-0.4-1.2-0.4-1.8-0.3
		c-1.7,1-3.7,1.7-5.5,2.5c-2.2,1.3,0.9,1.8,1,3.1l0.4,14.8l-0.3,1c-0.3,0.6-0.7,0.9-1.3,1c0-0.6,0-1.1-0.3-1.7
		c0-0.6-0.7-0.7-1.3-0.6c-0.3-0.1-0.6-0.4-0.6-0.7c-0.3-2.9-0.5-6-0.6-9c-0.3-2.6-0.6-5.1-1.4-7.5c-0.7-1.5-2.1-2.5-3.8-2.8
		c-2.5-0.3-4.9-0.4-7.3,0.4c-1.7,0.7-3.4,2.1-3.4,4.1c0,1.2,0.3,2.4,1.3,3.2c1.1,0.9,3,0.6,4.1-0.1c0.7-0.7,0.7-2,0.6-3
		c-0.1-0.8-1-0.8-1.1-1.4c0-0.3,0.5-0.4,0.6-0.4l2.3,0.1c0.8,0.4,1.1,1.1,1.4,1.8c0.3,1,0.5,2.5-0.1,3.5c-2.4,0.9-5,1.6-6.8,3.7
		c-2.4,1.8-2.7,5.1-2.1,7.9c0.3,2.1,2.1,4,4.1,4.6c2.4,1.1,5.1,0.1,6.9-1.7h0.6c0.9,0.9,1.7,1.7,3,2c1,0,2.2,0,3-0.7
		c0.2-0.2,0.7-0.7,0.8-0.8c0.3,0.6,0.7,0.9,1.3,1c2.4,0,5.3,0.3,7.6-0.1c0.4-0.3,0.9-0.7,0.8-1.3c-0.4-0.7-1.4-1-1.4-2l-0.1-15.1
		l0.1-0.6c0.2-0.4,0.6-0.5,1-0.4c0.5,0.3,1,0.8,1.1,1.4c1.3,4.4,2.4,9.2,2.3,13.8c-0.1,1-0.1,2-1.1,2.4c-0.4,0.1-0.5,0.7-0.4,1.1
		c0.3,0.6,0.7,1,1.3,1c2.4,0,5.1,0.3,7.5-0.1c0.5-0.1,0.8-0.5,0.8-1.1C157.2,37.1,156.6,37,156.2,36.7z M125.6,35.5
		c-0.9-0.4-1.4-1.6-1.5-2.4c0.1-2.3-0.6-5.1,1.8-6.5c0.4-0.4,1.2-0.7,1.4,0c0.3,2.8,0.4,5.5,0.4,8.3
		C127.3,35.5,126.4,35.8,125.6,35.5z"/>
	<path class="st0" d="M218.7,31.8c-1.3,1.7-2.8,3.2-4.5,4.5c-9-0.1-17.5-2.5-26.2-3c-0.3-0.3-0.6-0.6-0.7-1
		c6.9-1.3,13.9-0.6,20.7-0.1c3.7,0.1,7.2-0.1,10.7-0.7L218.7,31.8L218.7,31.8z"/>
	<path class="st0" d="M205.2,36.2c2.7,0.3,5.4,0.6,7.9,0.8c-5.5,3.8-14.2,3.9-19.9,0.6c-1.5-1-3.2-2-4.5-3.5c0.1-0.1,0.4,0,0.6-0.1
		l3.8,0.3L205.2,36.2z"/>
</g>
</svg>
